<?xml version="1.0" encoding="utf-8"?>
<!-- Generator: Adobe Illustrator 19.0.0, SVG Export Plug-In . SVG Version: 6.00 Build 0)  -->
<svg version="1.1" id="Слой_1" xmlns="http://www.w3.org/2000/svg" xmlns:xlink="http://www.w3.org/1999/xlink" x="0px" y="0px"
	 viewBox="0 0 417 135.3" style="enable-background:new 0 0 417 135.3;" xml:space="preserve">
<style type="text/css">
	.st0{fill:#00A9EC;}
	.st1{fill:#5C7ED9;}
	.st2{fill:none;stroke:#3749B8;stroke-width:8;stroke-miterlimit:1;}
	.st3{fill:#FFFFFF;}
	.st4{font-family:'GothamPro-Black';}
	.st5{font-size:44.4512px;}
	.st6{letter-spacing:-3;}
	.st7{font-size:18px;}
	.st8{fill:none;stroke:#FFFFFF;stroke-width:2;}
</style>
<g id="XMLID_3_">
	<g id="XMLID_29_">
		<path id="XMLID_52_" class="st0" d="M24.9,97.6c0,0,23.1,16.4,97.4,7.6c79.6-9.4,226-46.6,274.9-1.1
			c-2.2-36.7-40.1-57.3-76.6-55.8C253.5,51,198.2,86.4,110.8,99.7C41.8,110.2,24.9,97.6,24.9,97.6"/>
		<path id="XMLID_42_" class="st1" d="M353.1,77c-3,4.7-6,8.8-9,12.3c-3.6,4.1-6.2,6.1-8,6c-0.9-0.1-1.3-0.7-1.3-2
			c0-1.9,0.7-4.5,2.2-7.9c2.7-6,5.6-11,8.6-14.9c3.5-4.3,6.6-6.4,9.4-6.4c1.7,0,2.6,0.8,2.6,2.5c0,0.4-0.1,0.9-0.3,1.4
			C356.2,71.1,354.8,74.1,353.1,77 M363,62.2c-1-0.2-1.8,0.3-2.6,1.3c-0.3,0.5-0.8,1.4-1.4,2.5c-0.3-2-1.5-3.1-3.7-3.1
			c-3.5-0.2-7.7,2-12.6,6.5c-4.3,3.9-7.4,8.1-9.4,12.4c-1.7,3.8-2.6,7.2-2.6,10.1c0,3.7,1.3,5.6,3.9,5.8c2.1,0.1,5.1-1.9,8.9-5.9
			c4.2-4.4,7.9-9.4,11.1-15.2c-3.9,10.2-6.9,17.7-9,22.4c-0.8,1.7-0.6,2.7,0.7,2.9c1,0.2,2.3-0.6,3.7-2.2c2.1-2.5,4.3-4.9,6.5-7.1
			c2.3-2.2,4.1-3.6,5.5-4.3c0.6-0.3,0.8-0.5,0.7-0.8c-0.1-0.2-0.4-0.1-0.9,0.1c-1,0.4-2.6,1.3-4.6,2.9c-2.4,1.9-4.8,4.3-7.1,7.2
			c2.7-5,5.1-10.1,7.1-15.3c3.2-8.3,5.6-14.4,7.2-18.2C364.8,63.1,364.3,62.5,363,62.2 M304.1,118.6c-2.1,3.8-4.2,6.7-6.3,8.5
			c-1.2,1-2.1,1.5-2.7,1.4c-0.5-0.2-0.6-1-0.3-2.4c1-4.1,2.7-7.9,5.1-11.3c3.3-4.6,6.9-8.1,10.7-10.3
			C308.7,109.7,306.5,114.3,304.1,118.6 M329.8,61.8c-3.5,0-7.5,1.1-11.9,3.3c-7.9,3.8-13.5,9.6-16.9,17.1c-1.6,3.5-2.3,6.7-2.2,9.6
			c0.1,3.8,1.5,5.7,4.3,5.9c1.9,0.1,4.5-1.5,7.7-4.8c3-3.1,6.1-7.2,9.4-12.6c-5.4,13.8-8.4,21.2-8.9,22.2
			c-5.1,3.4-9.4,7.3-12.7,11.6c-4,5.3-6.3,9.9-6.9,13.7c-0.3,2,0.2,3,1.6,3c1.5,0,3.7-1.3,6.7-4c3-2.7,5.5-5.4,7.4-8.3
			c3.6-5.4,6.7-10.9,9.3-16.5c1.9-1.3,3.4-2.2,4.4-2.6c1.8-0.8,3.1-1.3,3.7-1.5c0.7-0.2,1-0.4,1-0.6c0-0.3-0.4-0.3-1.3-0.1
			c-1.4,0.2-2.6,0.5-3.7,1c-1.3,0.6-2.5,1.2-3.5,1.8c5.1-14,9.3-24.2,12.6-30.8c0.7-0.7,1-1.1,1-1.2c-0.1-0.3-0.6-0.2-1.4,0.1
			c-1.7,0.7-3.1,1.6-4.4,2.7c-1.6,2.2-2.8,4-3.8,5.5c-5.2,7.6-8.9,12.6-11.1,14.9c-2.9,3.1-5,4.4-6.4,4.2c-0.8-0.2-1.1-0.9-1-2.2
			c0.1-2.1,0.8-4.8,2.2-8.1c3.9-9.2,9.1-15.7,15.4-19.5c3.2-1.9,6.3-2.9,9.3-2.9c1.5,0,2.4,0.5,2.6,1.4c0.3,0.9,0.3,1.5,0.3,1.6
			c0.3,0.1,0.7-0.1,1.2-0.5c0.6-0.4,0.8-1,0.7-1.6C334.4,62.5,332.8,61.8,329.8,61.8 M301.1,64.9c-0.9,0.2-1.7,0.2-2.5,0.1
			c-1.4-0.3-2.4-0.8-3.1-1.6c-1-1-1.7-2-2.4-3.2c-0.6-1.2-1.4-1.5-2.2-1.1c-1,0.4-1.3,1.1-0.9,2c0.2,0.4,0.8,1.2,2,2.2
			c1.6,1.5,2.4,3.4,2.4,5.8c0,1.5-0.3,3.3-0.9,5.5c-1.6,5.8-4.1,11.1-7.5,16.1c-3.1,4.5-5.6,6.8-7.6,6.8c-1.5,0-2.2-1.1-2.2-3.4
			c0-1.6,0.4-3.7,1.2-6.4c2.5-8.7,6.5-15.9,11.8-21.5l1.6-1.6c-0.2-0.2-1,0.1-2.6,0.9c-6.9,3.4-11.7,9-14.4,16.9
			c-1,2.9-1.6,5.5-1.6,8c0,4.7,1.6,7.5,4.8,8.4c2.4,0.6,5.5-0.7,9.3-4c3.8-3.3,6.8-7.3,9-12.2c1.4-3.2,2.1-6.5,2.1-9.7
			c0-2.9-0.5-5.3-1.6-7.3c1,0.5,1.9,0.8,2.9,0.8c0.9,0,1.7-0.2,2.6-0.7c0.9-0.4,1.3-0.7,1.2-0.9C302.4,64.7,302,64.8,301.1,64.9
			 M217.4,54c-3.2,0-4.7-0.7-4.5-2c0.1-1.9,2.6-3.4,7.5-4.3C219.1,50.5,218.1,52.6,217.4,54 M223.5,53.8c1.4-3,2.4-5.2,3.1-6.7
			c1-0.1,2-0.1,3.3-0.1c5.5,0.2,10,0.9,13.6,2.1C235.3,52.2,228.7,53.7,223.5,53.8 M254.8,41.1c-2.5,3-5.5,5.2-8.9,6.7
			c-5.1-1.3-10.3-2-15.8-2c-1.2,0-2.1,0-2.7,0.1c5.5-11.8,9.8-20.9,13-27.2c1-0.1,2.9-0.1,5.6-0.1c4.5,0,8.1,0.9,10.8,2.7
			c2.7,1.8,3.8,4.5,3.3,8.1C259.5,33.8,257.7,37.7,254.8,41.1 M268.8,71.9c0-5.4-2-10.2-6-14.4c-3.5-3.8-8.1-6.6-13.9-8.6
			c4.2-2,7.9-4.4,11-7.1c4.7-4.1,7.1-8.2,7.1-12.4c0-4.3-1.9-7.4-5.6-9.5c-3.8-2-9-3-15.7-2.9c-1.3,0-2.9,0.1-4.7,0.3
			c1.2-2.3,2.1-3.9,2.7-4.8c1-1.1,1.5-1.8,1.4-2c-0.3-0.3-1.5,0.1-3.7,1.4c-1.6,1.2-3.2,3.1-4.8,5.6c-15.1,0.7-23.4,1-25,1
			c-8.9,0-13.3-1.7-13.3-5.2c0-2.8,2.6-4.8,7.7-6.2c3.6-0.9,7.2-1.3,10.7-1.2c1.4,0,2.1-0.1,2.1-0.3c0-0.3-1.1-0.5-3.3-0.7
			c-4.5-0.3-9.1,0.2-13.9,1.6c-5.1,1.5-7.8,3.4-8.2,5.8c-0.9,4.9,5.2,7.3,18.2,7.3c10,0,18.1-0.2,24.1-0.7
			c-4.5,7.9-9.4,17-14.5,27.4c-7.4,1.1-11.4,2.8-11.9,5.1c-0.4,2,2.1,3.2,7.7,3.5c-8.6,18.1-14.2,29.2-16.8,33.5
			c-1,2.4-1.9,3.5-2.9,3.5c-0.4,0-0.5-0.6-0.3-1.8c0.2-0.7,0.4-1.5,0.8-2.5c0.2-0.4,0.1-0.7-0.1-0.9c-0.3-0.3-0.9,0-1.7,0.7
			c-0.8,0.7-1.3,1.7-1.6,2.8c-0.4,2.1,0.2,3.2,1.8,3.3c2,0.1,5.1-2.7,9.4-8.5c4.1-5.5,8.2-12.3,12.3-20.4c3.2-6.3,4.8-9.5,4.8-9.6
			c4-0.2,7.9-0.7,11.5-1.6c3.7-0.9,7.5-2.1,11.5-3.7c4.3,1.4,7.9,3.8,10.9,7.2c3.4,4,5.1,8.6,5.1,13.9c0,2.1-0.3,4.3-0.9,6.5
			c-2.5,9.2-8.6,16.6-18.3,22.1c-9.1,5.1-19.6,7.7-31.7,7.7c-7.7,0-14.2-1.4-19.6-4.2c-6.2-3.2-9.2-7.6-9-13.1
			c0.1-3.1,1.4-6.1,3.9-8.8c2.5-2.7,5.5-4.5,9-5.3c0.6,0,0.9-0.1,0.9-0.4c0-0.3-0.3-0.5-0.9-0.5c-4.3,0.6-8.1,2.3-11.4,5.1
			c-3.7,3.1-5.5,6.5-5.6,10.2c-0.2,6,3.3,10.7,10.5,14c6.1,2.9,13.5,4.3,22.1,4.3c13.2,0,25.1-2.7,35.9-8
			c11.8-5.8,18.9-13.5,21.3-23C268.5,75.6,268.8,73.7,268.8,71.9"/>
		<path id="XMLID_32_" class="st2" d="M353.1,77c-3,4.7-6,8.8-9,12.3c-3.6,4.1-6.2,6.1-8,6c-0.9-0.1-1.3-0.7-1.3-2
			c0-1.9,0.7-4.5,2.2-7.9c2.7-6,5.6-11,8.6-14.9c3.5-4.3,6.6-6.4,9.4-6.4c1.7,0,2.6,0.8,2.6,2.5c0,0.4-0.1,0.9-0.3,1.4
			C356.2,71.1,354.8,74.1,353.1,77z M363,62.2c-1-0.2-1.8,0.3-2.6,1.3c-0.3,0.5-0.8,1.4-1.4,2.5c-0.3-2-1.5-3.1-3.7-3.1
			c-3.5-0.2-7.7,2-12.6,6.5c-4.3,3.9-7.4,8.1-9.4,12.4c-1.7,3.8-2.6,7.2-2.6,10.1c0,3.7,1.3,5.6,3.9,5.8c2.1,0.1,5.1-1.9,8.9-5.9
			c4.2-4.4,7.9-9.4,11.1-15.2c-3.9,10.2-6.9,17.7-9,22.4c-0.8,1.7-0.6,2.7,0.7,2.9c1,0.2,2.3-0.6,3.7-2.2c2.1-2.5,4.3-4.9,6.5-7.1
			c2.3-2.2,4.1-3.6,5.5-4.3c0.6-0.3,0.8-0.5,0.7-0.8c-0.1-0.2-0.4-0.1-0.9,0.1c-1,0.4-2.6,1.3-4.6,2.9c-2.4,1.9-4.8,4.3-7.1,7.2
			c2.7-5,5.1-10.1,7.1-15.3c3.2-8.3,5.6-14.4,7.2-18.2C364.8,63.1,364.3,62.5,363,62.2z M304.1,118.6c-2.1,3.8-4.2,6.7-6.3,8.5
			c-1.2,1-2.1,1.5-2.7,1.4c-0.5-0.2-0.6-1-0.3-2.4c1-4.1,2.7-7.9,5.1-11.3c3.3-4.6,6.9-8.1,10.7-10.3
			C308.7,109.7,306.5,114.3,304.1,118.6z M329.8,61.8c-3.5,0-7.5,1.1-11.9,3.3c-7.9,3.8-13.5,9.6-16.9,17.1
			c-1.6,3.5-2.3,6.7-2.2,9.6c0.1,3.8,1.5,5.7,4.3,5.9c1.9,0.1,4.5-1.5,7.7-4.8c3-3.1,6.1-7.2,9.4-12.6c-5.4,13.8-8.4,21.2-8.9,22.2
			c-5.1,3.4-9.4,7.3-12.7,11.6c-4,5.3-6.3,9.9-6.9,13.7c-0.3,2,0.2,3,1.6,3c1.5,0,3.7-1.3,6.7-4c3-2.7,5.5-5.4,7.4-8.3
			c3.6-5.4,6.7-10.9,9.3-16.5c1.9-1.3,3.4-2.2,4.4-2.6c1.8-0.8,3.1-1.3,3.7-1.5c0.7-0.2,1-0.4,1-0.6c0-0.3-0.4-0.3-1.3-0.1
			c-1.4,0.2-2.6,0.5-3.7,1c-1.3,0.6-2.5,1.2-3.5,1.8c5.1-14,9.3-24.2,12.6-30.8c0.7-0.7,1-1.1,1-1.2c-0.1-0.3-0.6-0.2-1.4,0.1
			c-1.7,0.7-3.1,1.6-4.4,2.7c-1.6,2.2-2.8,4-3.8,5.5c-5.2,7.6-8.9,12.6-11.1,14.9c-2.9,3.1-5,4.4-6.4,4.2c-0.8-0.2-1.1-0.9-1-2.2
			c0.1-2.1,0.8-4.8,2.2-8.1c3.9-9.2,9.1-15.7,15.4-19.5c3.2-1.9,6.3-2.9,9.3-2.9c1.5,0,2.4,0.5,2.6,1.4c0.3,0.9,0.3,1.5,0.3,1.6
			c0.3,0.1,0.7-0.1,1.2-0.5c0.6-0.4,0.8-1,0.7-1.6C334.4,62.5,332.8,61.8,329.8,61.8z M301.1,64.9c-0.9,0.2-1.7,0.2-2.5,0.1
			c-1.4-0.3-2.4-0.8-3.1-1.6c-1-1-1.7-2-2.4-3.2c-0.6-1.2-1.4-1.5-2.2-1.1c-1,0.4-1.3,1.1-0.9,2c0.2,0.4,0.8,1.2,2,2.2
			c1.6,1.5,2.4,3.4,2.4,5.8c0,1.5-0.3,3.3-0.9,5.5c-1.6,5.8-4.1,11.1-7.5,16.1c-3.1,4.5-5.6,6.8-7.6,6.8c-1.5,0-2.2-1.1-2.2-3.4
			c0-1.6,0.4-3.7,1.2-6.4c2.5-8.7,6.5-15.9,11.8-21.5l1.6-1.6c-0.2-0.2-1,0.1-2.6,0.9c-6.9,3.4-11.7,9-14.4,16.9
			c-1,2.9-1.6,5.5-1.6,8c0,4.7,1.6,7.5,4.8,8.4c2.4,0.6,5.5-0.7,9.3-4c3.8-3.3,6.8-7.3,9-12.2c1.4-3.2,2.1-6.5,2.1-9.7
			c0-2.9-0.5-5.3-1.6-7.3c1,0.5,1.9,0.8,2.9,0.8c0.9,0,1.7-0.2,2.6-0.7c0.9-0.4,1.3-0.7,1.2-0.9C302.4,64.7,302,64.8,301.1,64.9z
			 M217.4,54c-3.2,0-4.7-0.7-4.5-2c0.1-1.9,2.6-3.4,7.5-4.3C219.1,50.5,218.1,52.6,217.4,54z M223.5,53.8c1.4-3,2.4-5.2,3.1-6.7
			c1-0.1,2-0.1,3.3-0.1c5.5,0.2,10,0.9,13.6,2.1C235.3,52.2,228.7,53.7,223.5,53.8z M254.8,41.1c-2.5,3-5.5,5.2-8.9,6.7
			c-5.1-1.3-10.3-2-15.8-2c-1.2,0-2.1,0-2.7,0.1c5.5-11.8,9.8-20.9,13-27.2c1-0.1,2.9-0.1,5.6-0.1c4.5,0,8.1,0.9,10.8,2.7
			c2.7,1.8,3.8,4.5,3.3,8.1C259.5,33.8,257.7,37.7,254.8,41.1z M268.8,71.9c0-5.4-2-10.2-6-14.4c-3.5-3.8-8.1-6.6-13.9-8.6
			c4.2-2,7.9-4.4,11-7.1c4.7-4.1,7.1-8.2,7.1-12.4c0-4.3-1.9-7.4-5.6-9.5c-3.8-2-9-3-15.7-2.9c-1.3,0-2.9,0.1-4.7,0.3
			c1.2-2.3,2.1-3.9,2.7-4.8c1-1.1,1.5-1.8,1.4-2c-0.3-0.3-1.5,0.1-3.7,1.4c-1.6,1.2-3.2,3.1-4.8,5.6c-15.1,0.7-23.4,1-25,1
			c-8.9,0-13.3-1.7-13.3-5.2c0-2.8,2.6-4.8,7.7-6.2c3.6-0.9,7.2-1.3,10.7-1.2c1.4,0,2.1-0.1,2.1-0.3c0-0.3-1.1-0.5-3.3-0.7
			c-4.5-0.3-9.1,0.2-13.9,1.6c-5.1,1.5-7.8,3.4-8.2,5.8c-0.9,4.9,5.2,7.3,18.2,7.3c10,0,18.1-0.2,24.1-0.7
			c-4.5,7.9-9.4,17-14.5,27.4c-7.4,1.1-11.4,2.8-11.9,5.1c-0.4,2,2.1,3.2,7.7,3.5c-8.6,18.1-14.2,29.2-16.8,33.5
			c-1,2.4-1.9,3.5-2.9,3.5c-0.4,0-0.5-0.6-0.3-1.8c0.2-0.7,0.4-1.5,0.8-2.5c0.2-0.4,0.1-0.7-0.1-0.9c-0.3-0.3-0.9,0-1.7,0.7
			c-0.8,0.7-1.3,1.7-1.6,2.8c-0.4,2.1,0.2,3.2,1.8,3.3c2,0.1,5.1-2.7,9.4-8.5c4.1-5.5,8.2-12.3,12.3-20.4c3.2-6.3,4.8-9.5,4.8-9.6
			c4-0.2,7.9-0.7,11.5-1.6c3.7-0.9,7.5-2.1,11.5-3.7c4.3,1.4,7.9,3.8,10.9,7.2c3.4,4,5.1,8.6,5.1,13.9c0,2.1-0.3,4.3-0.9,6.5
			c-2.5,9.2-8.6,16.6-18.3,22.1c-9.1,5.1-19.6,7.7-31.7,7.7c-7.7,0-14.2-1.4-19.6-4.2c-6.2-3.2-9.2-7.6-9-13.1
			c0.1-3.1,1.4-6.1,3.9-8.8c2.5-2.7,5.5-4.5,9-5.3c0.6,0,0.9-0.1,0.9-0.4c0-0.3-0.3-0.5-0.9-0.5c-4.3,0.6-8.1,2.3-11.4,5.1
			c-3.7,3.1-5.5,6.5-5.6,10.2c-0.2,6,3.3,10.7,10.5,14c6.1,2.9,13.5,4.3,22.1,4.3c13.2,0,25.1-2.7,35.9-8
			c11.8-5.8,18.9-13.5,21.3-23C268.5,75.6,268.8,73.7,268.8,71.9z"/>
		<path id="XMLID_31_" class="st3" d="M416.9,120.1c0.6-12.7-4.5-24.9-5.5-27.3C393.1,49.6,344,46.3,344,46.3
			c53.5,8.1,60.7,50.7,61.6,58.2c0.2,1.6,0.4,3.1,0.6,4.5c3.6,3.3,7.3,7.1,10.7,11.2C416.9,120.2,416.9,120.1,416.9,120.1"/>
	</g>
	<text id="XMLID_28_" transform="matrix(1 0 0 1 0.4794 63.1956)"><tspan x="0" y="0" class="st3 st4 st5">Ч</tspan><tspan x="31.6" y="0" class="st3 st4 st5">И</tspan><tspan x="65.4" y="0" class="st3 st4 st5">С</tspan><tspan x="98" y="0" class="st3 st4 st5 st6">Т</tspan><tspan x="123.6" y="0" class="st3 st4 st5">А</tspan><tspan x="159.4" y="0" class="st3 st4 st5">Я</tspan></text>
	<text id="XMLID_27_" transform="matrix(1 0 0 1 1.2294 23.015)"><tspan x="0" y="0" class="st3 st4 st7">НП</tspan><tspan x="27.5" y="0" class="st3 st4 st7">Ц</tspan></text>
	<g id="XMLID_1_">
		<path id="XMLID_17_" class="st3" d="M353.1,77c-3,4.7-6,8.8-9,12.3c-3.6,4.1-6.2,6.1-8,6c-0.9-0.1-1.3-0.7-1.3-2
			c0-1.9,0.7-4.5,2.2-7.9c2.7-6,5.6-11,8.6-14.9c3.5-4.3,6.6-6.4,9.4-6.4c1.7,0,2.6,0.8,2.6,2.5c0,0.4-0.1,0.9-0.3,1.4
			C356.2,71.1,354.8,74.1,353.1,77 M363,62.2c-1-0.2-1.8,0.3-2.6,1.3c-0.3,0.5-0.8,1.4-1.4,2.5c-0.3-2-1.5-3.1-3.7-3.1
			c-3.5-0.2-7.7,2-12.6,6.5c-4.3,3.9-7.4,8.1-9.4,12.4c-1.7,3.8-2.6,7.2-2.6,10.1c0,3.7,1.3,5.6,3.9,5.8c2.1,0.1,5.1-1.9,8.9-5.9
			c4.2-4.4,7.9-9.4,11.1-15.2c-3.9,10.2-6.9,17.7-9,22.4c-0.8,1.7-0.6,2.7,0.7,2.9c1,0.2,2.3-0.6,3.7-2.2c2.1-2.5,4.3-4.9,6.5-7.1
			c2.3-2.2,4.1-3.6,5.5-4.3c0.6-0.3,0.8-0.5,0.7-0.8c-0.1-0.2-0.4-0.1-0.9,0.1c-1,0.4-2.6,1.3-4.6,2.9c-2.4,1.9-4.8,4.3-7.1,7.2
			c2.7-5,5.1-10.1,7.1-15.3c3.2-8.3,5.6-14.4,7.2-18.2C364.8,63.1,364.3,62.5,363,62.2 M304.1,118.6c-2.1,3.8-4.2,6.7-6.3,8.5
			c-1.2,1-2.1,1.5-2.7,1.4c-0.5-0.2-0.6-1-0.3-2.4c1-4.1,2.7-7.9,5.1-11.3c3.3-4.6,6.9-8.1,10.7-10.3
			C308.7,109.7,306.5,114.3,304.1,118.6 M329.8,61.8c-3.5,0-7.5,1.1-11.9,3.3c-7.9,3.8-13.5,9.6-16.9,17.1c-1.6,3.5-2.3,6.7-2.2,9.6
			c0.1,3.8,1.5,5.7,4.3,5.9c1.9,0.1,4.5-1.5,7.7-4.8c3-3.1,6.1-7.2,9.4-12.6c-5.4,13.8-8.4,21.2-8.9,22.2
			c-5.1,3.4-9.4,7.3-12.7,11.6c-4,5.3-6.3,9.9-6.9,13.7c-0.3,2,0.2,3,1.6,3c1.5,0,3.7-1.3,6.7-4c3-2.7,5.5-5.4,7.4-8.3
			c3.6-5.4,6.7-10.9,9.3-16.5c1.9-1.3,3.4-2.2,4.4-2.6c1.8-0.8,3.1-1.3,3.7-1.5c0.7-0.2,1-0.4,1-0.6c0-0.3-0.4-0.3-1.3-0.1
			c-1.4,0.2-2.6,0.5-3.7,1c-1.3,0.6-2.5,1.2-3.5,1.8c5.1-14,9.3-24.2,12.6-30.8c0.7-0.7,1-1.1,1-1.2c-0.1-0.3-0.6-0.2-1.4,0.1
			c-1.7,0.7-3.1,1.6-4.4,2.7c-1.6,2.2-2.8,4-3.8,5.5c-5.2,7.6-8.9,12.6-11.1,14.9c-2.9,3.1-5,4.4-6.4,4.2c-0.8-0.2-1.1-0.9-1-2.2
			c0.1-2.1,0.8-4.8,2.2-8.1c3.9-9.2,9.1-15.7,15.4-19.5c3.2-1.9,6.3-2.9,9.3-2.9c1.5,0,2.4,0.5,2.6,1.4c0.3,0.9,0.3,1.5,0.3,1.6
			c0.3,0.1,0.7-0.1,1.2-0.5c0.6-0.4,0.8-1,0.7-1.6C334.4,62.5,332.8,61.8,329.8,61.8 M301.1,64.9c-0.9,0.2-1.7,0.2-2.5,0.1
			c-1.4-0.3-2.4-0.8-3.1-1.6c-1-1-1.7-2-2.4-3.2c-0.6-1.2-1.4-1.5-2.2-1.1c-1,0.4-1.3,1.1-0.9,2c0.2,0.4,0.8,1.2,2,2.2
			c1.6,1.5,2.4,3.4,2.4,5.8c0,1.5-0.3,3.3-0.9,5.5c-1.6,5.8-4.1,11.1-7.5,16.1c-3.1,4.5-5.6,6.8-7.6,6.8c-1.5,0-2.2-1.1-2.2-3.4
			c0-1.6,0.4-3.7,1.2-6.4c2.5-8.7,6.5-15.9,11.8-21.5l1.6-1.6c-0.2-0.2-1,0.1-2.6,0.9c-6.9,3.4-11.7,9-14.4,16.9
			c-1,2.9-1.6,5.5-1.6,8c0,4.7,1.6,7.5,4.8,8.4c2.4,0.6,5.5-0.7,9.3-4c3.8-3.3,6.8-7.3,9-12.2c1.4-3.2,2.1-6.5,2.1-9.7
			c0-2.9-0.5-5.3-1.6-7.3c1,0.5,1.9,0.8,2.9,0.8c0.9,0,1.7-0.2,2.6-0.7c0.9-0.4,1.3-0.7,1.2-0.9C302.4,64.7,302,64.8,301.1,64.9
			 M217.4,54c-3.2,0-4.7-0.7-4.5-2c0.1-1.9,2.6-3.4,7.5-4.3C219.1,50.5,218.1,52.6,217.4,54 M223.5,53.8c1.4-3,2.4-5.2,3.1-6.7
			c1-0.1,2-0.1,3.3-0.1c5.5,0.2,10,0.9,13.6,2.1C235.3,52.2,228.7,53.7,223.5,53.8 M254.8,41.1c-2.5,3-5.5,5.2-8.9,6.7
			c-5.1-1.3-10.3-2-15.8-2c-1.2,0-2.1,0-2.7,0.1c5.5-11.8,9.8-20.9,13-27.2c1-0.1,2.9-0.1,5.6-0.1c4.5,0,8.1,0.9,10.8,2.7
			c2.7,1.8,3.8,4.5,3.3,8.1C259.5,33.8,257.7,37.7,254.8,41.1 M268.8,71.9c0-5.4-2-10.2-6-14.4c-3.5-3.8-8.1-6.6-13.9-8.6
			c4.2-2,7.9-4.4,11-7.1c4.7-4.1,7.1-8.2,7.1-12.4c0-4.3-1.9-7.4-5.6-9.5c-3.8-2-9-3-15.7-2.9c-1.3,0-2.9,0.1-4.7,0.3
			c1.2-2.3,2.1-3.9,2.7-4.8c1-1.1,1.5-1.8,1.4-2c-0.3-0.3-1.5,0.1-3.7,1.4c-1.6,1.2-3.2,3.1-4.8,5.6c-15.1,0.7-23.4,1-25,1
			c-8.9,0-13.3-1.7-13.3-5.2c0-2.8,2.6-4.8,7.7-6.2c3.6-0.9,7.2-1.3,10.7-1.2c1.4,0,2.1-0.1,2.1-0.3c0-0.3-1.1-0.5-3.3-0.7
			c-4.5-0.3-9.1,0.2-13.9,1.6c-5.1,1.5-7.8,3.4-8.2,5.8c-0.9,4.9,5.2,7.3,18.2,7.3c10,0,18.1-0.2,24.1-0.7
			c-4.5,7.9-9.4,17-14.5,27.4c-7.4,1.1-11.4,2.8-11.9,5.1c-0.4,2,2.1,3.2,7.7,3.5c-8.6,18.1-14.2,29.2-16.8,33.5
			c-1,2.4-1.9,3.5-2.9,3.5c-0.4,0-0.5-0.6-0.3-1.8c0.2-0.7,0.4-1.5,0.8-2.5c0.2-0.4,0.1-0.7-0.1-0.9c-0.3-0.3-0.9,0-1.7,0.7
			c-0.8,0.7-1.3,1.7-1.6,2.8c-0.4,2.1,0.2,3.2,1.8,3.3c2,0.1,5.1-2.7,9.4-8.5c4.1-5.5,8.2-12.3,12.3-20.4c3.2-6.3,4.8-9.5,4.8-9.6
			c4-0.2,7.9-0.7,11.5-1.6c3.7-0.9,7.5-2.1,11.5-3.7c4.3,1.4,7.9,3.8,10.9,7.2c3.4,4,5.1,8.6,5.1,13.9c0,2.1-0.3,4.3-0.9,6.5
			c-2.5,9.2-8.6,16.6-18.3,22.1c-9.1,5.1-19.6,7.7-31.7,7.7c-7.7,0-14.2-1.4-19.6-4.2c-6.2-3.2-9.2-7.6-9-13.1
			c0.1-3.1,1.4-6.1,3.9-8.8c2.5-2.7,5.5-4.5,9-5.3c0.6,0,0.9-0.1,0.9-0.4c0-0.3-0.3-0.5-0.9-0.5c-4.3,0.6-8.1,2.3-11.4,5.1
			c-3.7,3.1-5.5,6.5-5.6,10.2c-0.2,6,3.3,10.7,10.5,14c6.1,2.9,13.5,4.3,22.1,4.3c13.2,0,25.1-2.7,35.9-8
			c11.8-5.8,18.9-13.5,21.3-23C268.5,75.6,268.8,73.7,268.8,71.9"/>
		<path id="XMLID_7_" class="st8" d="M353.1,77c-3,4.7-6,8.8-9,12.3c-3.6,4.1-6.2,6.1-8,6c-0.9-0.1-1.3-0.7-1.3-2
			c0-1.9,0.7-4.5,2.2-7.9c2.7-6,5.6-11,8.6-14.9c3.5-4.3,6.6-6.4,9.4-6.4c1.7,0,2.6,0.8,2.6,2.5c0,0.4-0.1,0.9-0.3,1.4
			C356.2,71.1,354.8,74.1,353.1,77z M363,62.2c-1-0.2-1.8,0.3-2.6,1.3c-0.3,0.5-0.8,1.4-1.4,2.5c-0.3-2-1.5-3.1-3.7-3.1
			c-3.5-0.2-7.7,2-12.6,6.5c-4.3,3.9-7.4,8.1-9.4,12.4c-1.7,3.8-2.6,7.2-2.6,10.1c0,3.7,1.3,5.6,3.9,5.8c2.1,0.1,5.1-1.9,8.9-5.9
			c4.2-4.4,7.9-9.4,11.1-15.2c-3.9,10.2-6.9,17.7-9,22.4c-0.8,1.7-0.6,2.7,0.7,2.9c1,0.2,2.3-0.6,3.7-2.2c2.1-2.5,4.3-4.9,6.5-7.1
			c2.3-2.2,4.1-3.6,5.5-4.3c0.6-0.3,0.8-0.5,0.7-0.8c-0.1-0.2-0.4-0.1-0.9,0.1c-1,0.4-2.6,1.3-4.6,2.9c-2.4,1.9-4.8,4.3-7.1,7.2
			c2.7-5,5.1-10.1,7.1-15.3c3.2-8.3,5.6-14.4,7.2-18.2C364.8,63.1,364.3,62.5,363,62.2z M304.1,118.6c-2.1,3.8-4.2,6.7-6.3,8.5
			c-1.2,1-2.1,1.5-2.7,1.4c-0.5-0.2-0.6-1-0.3-2.4c1-4.1,2.7-7.9,5.1-11.3c3.3-4.6,6.9-8.1,10.7-10.3
			C308.7,109.7,306.5,114.3,304.1,118.6z M329.8,61.8c-3.5,0-7.5,1.1-11.9,3.3c-7.9,3.8-13.5,9.6-16.9,17.1
			c-1.6,3.5-2.3,6.7-2.2,9.6c0.1,3.8,1.5,5.7,4.3,5.9c1.9,0.1,4.5-1.5,7.7-4.8c3-3.1,6.1-7.2,9.4-12.6c-5.4,13.8-8.4,21.2-8.9,22.2
			c-5.1,3.4-9.4,7.3-12.7,11.6c-4,5.3-6.3,9.9-6.9,13.7c-0.3,2,0.2,3,1.6,3c1.5,0,3.7-1.3,6.7-4c3-2.7,5.5-5.4,7.4-8.3
			c3.6-5.4,6.7-10.9,9.3-16.5c1.9-1.3,3.4-2.2,4.4-2.6c1.8-0.8,3.1-1.3,3.7-1.5c0.7-0.2,1-0.4,1-0.6c0-0.3-0.4-0.3-1.3-0.1
			c-1.4,0.2-2.6,0.5-3.7,1c-1.3,0.6-2.5,1.2-3.5,1.8c5.1-14,9.3-24.2,12.6-30.8c0.7-0.7,1-1.1,1-1.2c-0.1-0.3-0.6-0.2-1.4,0.1
			c-1.7,0.7-3.1,1.6-4.4,2.7c-1.6,2.2-2.8,4-3.8,5.5c-5.2,7.6-8.9,12.6-11.1,14.9c-2.9,3.1-5,4.4-6.4,4.2c-0.8-0.2-1.1-0.9-1-2.2
			c0.1-2.1,0.8-4.8,2.2-8.1c3.9-9.2,9.1-15.7,15.4-19.5c3.2-1.9,6.3-2.9,9.3-2.9c1.5,0,2.4,0.5,2.6,1.4c0.3,0.9,0.3,1.5,0.3,1.6
			c0.3,0.1,0.7-0.1,1.2-0.5c0.6-0.4,0.8-1,0.7-1.6C334.4,62.5,332.8,61.8,329.8,61.8z M301.1,64.9c-0.9,0.2-1.7,0.2-2.5,0.1
			c-1.4-0.3-2.4-0.8-3.1-1.6c-1-1-1.7-2-2.4-3.2c-0.6-1.2-1.4-1.5-2.2-1.1c-1,0.4-1.3,1.1-0.9,2c0.2,0.4,0.8,1.2,2,2.2
			c1.6,1.5,2.4,3.4,2.4,5.8c0,1.5-0.3,3.3-0.9,5.5c-1.6,5.8-4.1,11.1-7.5,16.1c-3.1,4.5-5.6,6.8-7.6,6.8c-1.5,0-2.2-1.1-2.2-3.4
			c0-1.6,0.4-3.7,1.2-6.4c2.5-8.7,6.5-15.9,11.8-21.5l1.6-1.6c-0.2-0.2-1,0.1-2.6,0.9c-6.9,3.4-11.7,9-14.4,16.9
			c-1,2.9-1.6,5.5-1.6,8c0,4.7,1.6,7.5,4.8,8.4c2.4,0.6,5.5-0.7,9.3-4c3.8-3.3,6.8-7.3,9-12.2c1.4-3.2,2.1-6.5,2.1-9.7
			c0-2.9-0.5-5.3-1.6-7.3c1,0.5,1.9,0.8,2.9,0.8c0.9,0,1.7-0.2,2.6-0.7c0.9-0.4,1.3-0.7,1.2-0.9C302.4,64.7,302,64.8,301.1,64.9z
			 M217.4,54c-3.2,0-4.7-0.7-4.5-2c0.1-1.9,2.6-3.4,7.5-4.3C219.1,50.5,218.1,52.6,217.4,54z M223.5,53.8c1.4-3,2.4-5.2,3.1-6.7
			c1-0.1,2-0.1,3.3-0.1c5.5,0.2,10,0.9,13.6,2.1C235.3,52.2,228.7,53.7,223.5,53.8z M254.8,41.1c-2.5,3-5.5,5.2-8.9,6.7
			c-5.1-1.3-10.3-2-15.8-2c-1.2,0-2.1,0-2.7,0.1c5.5-11.8,9.8-20.9,13-27.2c1-0.1,2.9-0.1,5.6-0.1c4.5,0,8.1,0.9,10.8,2.7
			c2.7,1.8,3.8,4.5,3.3,8.1C259.5,33.8,257.7,37.7,254.8,41.1z M268.8,71.9c0-5.4-2-10.2-6-14.4c-3.5-3.8-8.1-6.6-13.9-8.6
			c4.2-2,7.9-4.4,11-7.1c4.7-4.1,7.1-8.2,7.1-12.4c0-4.3-1.9-7.4-5.6-9.5c-3.8-2-9-3-15.7-2.9c-1.3,0-2.9,0.1-4.7,0.3
			c1.2-2.3,2.1-3.9,2.7-4.8c1-1.1,1.5-1.8,1.4-2c-0.3-0.3-1.5,0.1-3.7,1.4c-1.6,1.2-3.2,3.1-4.8,5.6c-15.1,0.7-23.4,1-25,1
			c-8.9,0-13.3-1.7-13.3-5.2c0-2.8,2.6-4.8,7.7-6.2c3.6-0.9,7.2-1.3,10.7-1.2c1.4,0,2.1-0.1,2.1-0.3c0-0.3-1.1-0.5-3.3-0.7
			c-4.5-0.3-9.1,0.2-13.9,1.6c-5.1,1.5-7.8,3.4-8.2,5.8c-0.9,4.9,5.2,7.3,18.2,7.3c10,0,18.1-0.2,24.1-0.7
			c-4.5,7.9-9.4,17-14.5,27.4c-7.4,1.1-11.4,2.8-11.9,5.1c-0.4,2,2.1,3.2,7.7,3.5c-8.6,18.1-14.2,29.2-16.8,33.5
			c-1,2.4-1.9,3.5-2.9,3.5c-0.4,0-0.5-0.6-0.3-1.8c0.2-0.7,0.4-1.5,0.8-2.5c0.2-0.4,0.1-0.7-0.1-0.9c-0.3-0.3-0.9,0-1.7,0.7
			c-0.8,0.7-1.3,1.7-1.6,2.8c-0.4,2.1,0.2,3.2,1.8,3.3c2,0.1,5.1-2.7,9.4-8.5c4.1-5.5,8.2-12.3,12.3-20.4c3.2-6.3,4.8-9.5,4.8-9.6
			c4-0.2,7.9-0.7,11.5-1.6c3.7-0.9,7.5-2.1,11.5-3.7c4.3,1.4,7.9,3.8,10.9,7.2c3.4,4,5.1,8.6,5.1,13.9c0,2.1-0.3,4.3-0.9,6.5
			c-2.5,9.2-8.6,16.6-18.3,22.1c-9.1,5.1-19.6,7.7-31.7,7.7c-7.7,0-14.2-1.4-19.6-4.2c-6.2-3.2-9.2-7.6-9-13.1
			c0.1-3.1,1.4-6.1,3.9-8.8c2.5-2.7,5.5-4.5,9-5.3c0.6,0,0.9-0.1,0.9-0.4c0-0.3-0.3-0.5-0.9-0.5c-4.3,0.6-8.1,2.3-11.4,5.1
			c-3.7,3.1-5.5,6.5-5.6,10.2c-0.2,6,3.3,10.7,10.5,14c6.1,2.9,13.5,4.3,22.1,4.3c13.2,0,25.1-2.7,35.9-8
			c11.8-5.8,18.9-13.5,21.3-23C268.5,75.6,268.8,73.7,268.8,71.9z"/>
		<path id="XMLID_6_" class="st3" d="M193.5,75c0,0-156.7,27.3-192.3-3.2C17.5,98.5,60,104.6,192.8,76c0.2,0,1.6,0,1.7-0.1
			C195.7,75.6,194.5,75,193.5,75"/>
	</g>
</g>
</svg>
